<svg width="41" height="27" viewBox="0 0 41 27" fill="none" xmlns="http://www.w3.org/2000/svg">
<path d="M2.27778 27C1.63241 27 1.09182 26.784 0.656008 26.352C0.220193 25.92 0.00152637 25.386 7.85439e-06 24.75C-0.00151066 24.114 0.217156 23.58 0.656008 23.148C1.09486 22.716 1.63545 22.5 2.27778 22.5H38.7222C39.3676 22.5 39.9089 22.716 40.3463 23.148C40.7836 23.58 41.0015 24.114 41 24.75C40.9985 25.386 40.7798 25.9207 40.344 26.3542C39.9082 26.7877 39.3676 27.003 38.7222 27H2.27778ZM2.27778 15.75C1.63241 15.75 1.09182 15.534 0.656008 15.102C0.220193 14.67 0.00152637 14.136 7.85439e-06 13.5C-0.00151066 12.864 0.217156 12.33 0.656008 11.898C1.09486 11.466 1.63545 11.25 2.27778 11.25H38.7222C39.3676 11.25 39.9089 11.466 40.3463 11.898C40.7836 12.33 41.0015 12.864 41 13.5C40.9985 14.136 40.7798 14.6707 40.344 15.1042C39.9082 15.5377 39.3676 15.753 38.7222 15.75H2.27778ZM2.27778 4.5C1.63241 4.5 1.09182 4.284 0.656008 3.852C0.220193 3.42 0.00152637 2.886 7.85439e-06 2.25C-0.00151066 1.614 0.217156 1.08 0.656008 0.648C1.09486 0.216 1.63545 0 2.27778 0H38.7222C39.3676 0 39.9089 0.216 40.3463 0.648C40.7836 1.08 41.0015 1.614 41 2.25C40.9985 2.886 40.7798 3.42075 40.344 3.85425C39.9082 4.28775 39.3676 4.503 38.7222 4.5H2.27778Z" fill="white"/>
</svg>
